<?xml version="1.0" encoding="utf-8"?>
<!-- Generator: Adobe Illustrator 19.0.0, SVG Export Plug-In . SVG Version: 6.00 Build 0)  -->
<svg version="1.1" id="layer" xmlns="http://www.w3.org/2000/svg" xmlns:xlink="http://www.w3.org/1999/xlink" x="0px" y="0px"
	 viewBox="-153 -46 652 652" style="enable-background:new -153 -46 652 652;" xml:space="preserve">
<style type="text/css">
	.st0{fill-rule:evenodd;clip-rule:evenodd;fill:#004990;}
	.st1{fill-rule:evenodd;clip-rule:evenodd;fill:#FFFFFF;}
	.st2{fill:#FFFFFF;}
</style>
<path class="st0" d="M376.6,136.8c76.6,114.5,45.7,270.4-68.8,347S37.4,529.5-39.2,415c-76.6-114.5-45.7-270.4,68.8-347
	C144.1-8.6,300,22.3,376.6,136.8"/>
<path class="st1" d="M299.8,471.8C191.1,544.5,44,515.4-28.7,406.7c-72.8-108.8-43.6-255.9,65.1-328.6
	C145.1,5.3,292.3,34.5,365,143.2C437.7,252,408.5,399.1,299.8,471.8 M370.5,139.6C295.9,28.1,144.2-2,32.8,72.6
	c-111.4,74.5-141.5,226.3-67,337.7c74.5,111.5,226.3,141.6,337.7,67C414.9,402.8,445,251.1,370.5,139.6"/>
<path class="st1" d="M249.8,397C182.4,442.1,91.1,424,46,356.6C0.9,289.2,19.1,198,86.5,152.9c67.4-45.1,158.6-27,203.7,40.4
	C335.3,260.7,317.2,351.9,249.8,397 M295.8,189.5c-47.1-70.6-142.6-89.5-213.1-42.3C12.2,194.4-6.7,289.9,40.4,360.4
	c47.2,70.5,142.6,89.5,213.1,42.3C324.1,355.5,343,260,295.8,189.5"/>
<path class="st1" d="M-27.3,265.6c5.2,0,9.4,4.2,9.4,9.4c0,5.1-4.2,9.4-9.4,9.4c-5.2,0-9.4-4.2-9.4-9.4
	C-36.7,269.8-32.5,265.6-27.3,265.6"/>
<path class="st1" d="M364.3,265.6c5.2,0,9.4,4.2,9.4,9.4c0,5.1-4.2,9.4-9.4,9.4c-5.2,0-9.4-4.2-9.4-9.4
	C355,269.8,359.2,265.6,364.3,265.6"/>
<path class="st2" d="M17.5,194.1c1.9-3.7,2.9-6.9,3.5-11l-9.1-4.7c-1.7-0.9-2.4-0.9-3.5,0.6l-2.7,3.6l-4-2.1l8.4-16l4,2.1l-0.9,2.9
	c-0.5,1.9,0,2.3,1.6,3.2l11.9,6.2c-0.3,4.4-0.7,11.5-4.6,19c-7.5,14.4-19.6,15.8-35.3,7.7c-14.3-7.4-22.3-20-14.2-35.6
	c2.3-4.5,5-9,12.3-14.1l10.5,6.8l-2.5,4.9l-8.3-2.4c-3.3,2.6-5.3,4.5-7.9,9.5c-2.8,5.3-2.4,8.6-1.4,11.6c1.2,3.6,9.4,9.7,14.5,12.4
	C1.1,204.5,12,204.8,17.5,194.1"/>
<path class="st2" d="M54.8,128.7c9.5,9.8,5.3,20.7-1.6,27.3c-8.9,8.5-17.9,8-26.2-0.5L6.7,134.4c-1.3-1.4-2.1-1.7-3.6-0.5l-3.4,2.3
	l-3.1-3.3l13.8-13.3l3.1,3.3l-2.4,3.3c-1.2,1.5-0.9,2.3,0.5,3.6L31,150c7.5,7.8,14.5,4.9,19.7-0.1c2.2-2.1,4.1-5.1,4.2-8
	c0.1-2.4-1.4-5.6-5.9-10.2L30,112c-1.4-1.4-2-1.6-3.6-0.5l-3.4,2.3l-3.2-3.3l13.6-13.1l3.2,3.3l-2.4,3.3c-1.2,1.5-0.9,2.2,0.4,3.6
	L54.8,128.7z"/>
<path class="st2" d="M99.9,123.2l-5.1,2.4l-35.9-35c-2-2-3.7-1.7-5.5-1l-2.5,0.9l-2-4.1l18.6-8.9l1.9,4L66,83.6
	c-1.4,0.9-1.8,1.4-1.4,2.3c0.2,0.4,0.6,0.9,1.1,1.4l27.7,28l-6-38.5c-0.1-0.6-0.3-1.2-0.5-1.6c-0.5-1-1.3-1-2.8-0.4l-3.8,1.3l-2-4
	l17.2-8.3l1.9,4.1L95,69.6c-1.6,1-2.2,1.7-1.9,4.5L99.9,123.2z"/>
<path class="st2" d="M123.8,113.5l-0.7-4.5l3.9-1.3c1.9-0.6,2.1-1.3,1.8-3.2l-6-38.7c-0.3-1.9-0.7-2.8-2.7-2.7l-4.1,0.1l-0.6-4.2
	l39-5.9L156,66l-4.8,0.8l-1.3-5.2c-0.4-1.9-1.4-2.1-3.2-1.8L129,62.4l2.7,17.8l17.8-2.7l0.9,5.5l-17.8,2.7l3.1,20.2l17.7-2.7
	c1.8-0.3,2.7-0.7,2.5-2.7l-0.4-5.7l5.1-0.8l2.5,13.3L123.8,113.5z"/>
<path class="st2" d="M188.1,79l6.8,0.9c2.8,0.4,5.3,0.6,7.7-0.9c2.3-1.4,3.6-3.5,4.2-7.8c0.9-6.8-3.5-9.8-10.3-10.7l-5.7-0.8
	L188.1,79z M185.1,101.1c-0.3,1.9,0,2.7,1.9,3.2l4.9,1.3l-0.6,4.6l-20-2.7l0.6-4.5l4.1-0.1c1.9,0,2.3-0.7,2.6-2.6l5.3-38.6
	c0.3-1.9,0.1-2.6-1.8-3.2l-3.9-1.2l0.6-4.5l20,2.8c10.5,1.4,16.9,5.6,15.5,16.1c-1.5,10.8-11,12.8-15.8,12.8
	c1.6,0.6,3.2,2.9,4.3,5.4l6.6,14.2c1.6,3.3,3.6,4.6,5.5,4.8c0.8,0.1,2.3-0.1,2.8-0.1l-1,4.1c-0.7,0.4-3.1,1.2-6.2,0.7
	c-4.1-0.5-6.3-4-8-7.6l-7.9-17.6c-0.8-1.7-1.9-3.4-4.2-3.7l-2.8-0.4L185.1,101.1z"/>
<path class="st2" d="M239.8,115c-0.9,1.7-1,2.4,0.5,3.6l3.2,2.5l-2.2,4l-16.8-9.2l2.2-4l3.9,1.3c1.8,0.7,2.4,0.2,3.3-1.5l18.7-34.3
	c0.9-1.7,1.1-2.6-0.5-3.7l-3.2-2.3l2.2-4l11.3,6.2l3.5,51.1L282.7,94c1-1.7,1.2-2.6-0.4-3.8l-3.3-2.3l2.2-4l16.6,9.1l-2.1,4
	l-3.8-1.5c-1.8-0.7-2.5,0-3.4,1.6l-22.6,41.4l-5.9-3.2l-3.4-51L239.8,115z"/>
<path class="st2" d="M314.5,161.4c-9.8,9.4-20.7,5.2-27.3-1.7c-8.5-8.9-8-18,0.6-26.2l21.1-20.3c1.4-1.3,1.7-2,0.6-3.6l-2.3-3.4
	l3.3-3.1l13.3,13.9l-3.3,3.1l-3.3-2.4c-1.5-1.2-2.2-0.9-3.6,0.4l-20.3,19.4c-7.8,7.5-5,14.5,0,19.7c2.1,2.2,5.1,4.1,8,4.3
	c2.4,0.1,5.6-1.4,10.2-5.9l19.8-19c1.4-1.3,1.7-2,0.5-3.6l-2.3-3.4l3.2-3.2l13.1,13.6l-3.2,3.1l-3.3-2.4c-1.5-1.2-2.3-0.9-3.6,0.4
	L314.5,161.4z"/>
<path class="st2" d="M308.8,184.4l4-2l2.5,3.3c1.1,1.6,1.9,1.5,3.6,0.7l34.8-17.6c1.7-0.9,2.2-1.4,1.6-3.3l-1.2-3.9l4-2.1l8.9,17.5
	l-4,2.1l-2.7-3.7c-1.2-1.6-1.9-1.5-3.6-0.6l-37,18.7l6.9,13.6c0.8,1.6,1.5,2.3,3.3,1.6l5.4-2.2l2.3,4.6l-11.9,6.5L308.8,184.4z"/>
<path class="st2" d="M-8,350.8l3.1,6.3c1.3,2.6,2.4,4.9,5.1,6.1c2.6,1.2,5,1.1,9.1-0.8c6.4-3.1,6.4-8.5,3.3-15l-2.5-5.3L-8,350.8z
	 M-28.7,360.7c-1.8,0.8-2.3,1.5-1.7,3.4l1.7,4.9l-4.3,2l-9-18.7l4.1-2l2.5,3.5c1.2,1.6,1.9,1.6,3.7,0.8l36.1-17.4
	c1.8-0.8,2.3-1.4,1.7-3.3l-1.1-4.1l4.2-2l8.9,18.8c4.7,9.8,4.9,17.7-5,22.4c-10.1,4.9-17.2-2.1-20-6.3c0.4,1.7-0.7,4.4-2.2,6.8
	l-8.5,13.7c-2,3.2-1.9,5.7-1.1,7.4c0.4,0.8,1.3,1.9,1.7,2.3l-4.1,1.5c-0.7-0.4-2.7-1.9-4.2-4.9c-1.8-3.9-0.1-7.7,2-11.2l10.6-16.8
	c1-1.6,1.8-3.5,0.7-5.8l-1.2-2.5L-28.7,360.7z"/>
<path class="st2" d="M35.4,390.4c-4.2,0.3-11.9,5.6-16.9,10.7c-10,10.1-11.5,20.8-3.1,29.2c3.6,3.6,7.3,5.6,11.5,5.2
	c4.2-0.3,11.9-5.6,16.9-10.7c10-10.1,11.5-20.8,3.1-29.2C43.2,392,39.6,390.1,35.4,390.4 M9.2,432.4c-11.9-11.8-7.8-25,4.1-37.1
	c10.5-10.6,25.9-15.5,39.6-1.8c11.8,11.8,7.8,25-4.2,37C38.3,441.2,22.9,446,9.2,432.4"/>
<path class="st2" d="M54.3,469.5l1.7-4.3l4.1,0.9c2,0.5,2.3-0.1,3.2-1.9L81.1,427c0.5-1.4,0.2-2.2-1.4-3.1l-3.6-2l1.7-4.3l14.7,5.9
	L90,472.2l30.1-37.8l15.6,6.2l-1.7,4.3l-4.3-1.2c-1.8-0.5-2.6-0.2-3.2,1.4l-12.1,39.2c-0.6,1.9-0.7,2.5,1,3.6l4.1,2.3l-1.7,4.4
	l-18.7-7.4l1.7-4.4l4.1,1.1c1.7,0.4,2.5-0.1,3.1-1.5l12.3-38.8l-31.8,39.3l-5.2-2.1l2.2-51l-16.7,36.9c-0.5,1.5-0.4,2.5,1.3,3.4
	l3.7,2l-1.7,4.3L54.3,469.5z"/>
<path class="st2" d="M167,447.7l-0.8,3.5l-7.5,22.3l17.1-0.2l-7.8-22.2L167,447.7z M170.5,431.6l9.1,8.8l-3,2.1l-9.1-6.9l-8.8,7
	l-3.1-2.1l9-8.9L170.5,431.6z M164,441l7.4-0.1l17.3,47.9c1,2.8,1.8,3.3,3.8,3.6l3.1,0.5l0,4.7l-20.3,0.1v-4.5l4.3-0.7
	c1.4-0.3,2.1-0.9,2.1-2c0-0.5-0.1-0.9-0.4-1.5l-3.5-10l-21,0.2l-3.2,9.8c-0.2,0.6-0.3,1.2-0.3,1.6c0,1.2,0.7,1.8,2.1,2l4.3,0.7
	l0,4.5l-18.9,0.1l-0.1-4.7l3-0.6c2-0.4,2.7-0.9,3.7-3.7L164,441z"/>
<path class="st2" d="M234.7,479.5c0.8,1.8,1.3,2.4,3.2,2l4.1-0.9l1.7,4.4l-18.4,7.1l-1.7-4.3l3.6-2.2c1.7-1,1.8-1.8,1-3.6
	l-14.6-37.4c-0.7-1.8-1.4-2.6-3.3-2.1l-4,1l-1.7-4.3l12.3-4.9l42.6,31l-13.2-33.6c-0.7-1.9-1.3-2.7-3.2-2.2l-4,1.1l-1.7-4.3
	l18.2-7.1l1.7,4.3l-3.7,1.9c-1.7,0.9-1.6,1.9-1,3.8l17.7,45.2l-6.4,2.5l-42.6-31L234.7,479.5z"/>
<path class="st2" d="M315.1,443.3l-15.5,12.3l-2.9-3.7l2.9-3.2c1.3-1.5,1.1-2.3-0.1-3.8l-24.9-31.4c-1.3-1.6-2-1.9-3.7-1l-3.8,2.1
	l-2.9-3.7l15.5-12.3l2.9,3.6l-2.8,3.2c-1.4,1.5-1.2,2.2,0.1,3.7l25,31.5c1.2,1.5,1.9,1.9,3.6,0.9l3.7-2L315.1,443.3z"/>
<path class="st2" d="M335.7,423.9l-3.8-2.8l1.9-3.8c0.9-1.8,0.6-2.5-1-3.6l-32.3-24.1c-1.6-1.2-2.5-1.5-3.9-0.1l-2.9,3.1L290,390
	l24.2-32.6l10.6,8.5l-3,4.1l-4.7-2.9c-1.7-1.1-2.5-0.5-3.6,1l-10.9,14.7l14.9,11l11-14.8l4.6,3.4l-11,14.8l16.8,12.5l11-14.8
	c1.1-1.5,1.4-2.5-0.1-3.8l-4.5-3.9l3.2-4.3l11.5,8L335.7,423.9z"/>
<path class="st2" d="M379.4,348.3l-7.4,18.4l-4.3-1.7l0.9-4.1c0.4-2-0.1-2.5-1.9-3.2l-37.3-14.9c-1.8-0.7-2.6-0.7-3.6,1l-2.2,3.6
	l-4.3-1.7l7.3-18.3l4.3,1.7l-0.9,4.1c-0.5,1.9,0.1,2.5,1.9,3.2l37.2,14.9c1.8,0.7,2.6,0.7,3.6-1l2.2-3.6L379.4,348.3z"/>
<path class="st1" d="M187.4,278.7l-0.5,0.3l0.2,0.5l-0.6,0l-0.2,0.7l-0.7-0.3l-0.6,0.5l-0.5-0.4l-0.6,0.3l-0.2-0.5l-0.7,0l0.1-0.6
	l-0.6-0.1l0.2-0.5l-0.6-0.4l0.5-0.4l-0.2-0.5l0.5-0.3v-0.5l0.6-0.1l0.1-0.5l0.7,0.2l0.4-0.5l0.5,0.5l0.6-0.2l0.2,0.5l0.6,0l0.1,0.6
	l0.6,0.2l-0.1,0.5l0.5,0.4l-0.5,0.4L187.4,278.7z M203.2,279c0.2,1.8-4.2,1.9-4.4-1.1c0.1-3.1,4.4-3.1,4.4-1.4
	c-1.3-0.2-2.1,0.4-2.1,1.4C201.2,278.7,201.9,279.2,203.2,279 M122.1,273.9h45.8l0.1-0.2l-0.1-42.7h46.7l0,42.8l-45.1,0v0.1
	c2.5,8.7,4.8,16,7.2,22.2h14.7v-2.3c-0.7,1-1.8,0.8-2.3-0.3c-0.9,0.9-1.9,0.7-2.3-0.5c-0.8,0.9-2.1,0.7-2.4-0.6
	c-0.4,1.4-1.2,2.4-3,2.3c-1.7,0.5-2.3,0.5-2.7,0.1c-1.4,0.5-1.8,0.5-2.3,0.2l3.3-10.9c0.6-2,1.9-3,4.6-2.5c2.4,0.4,2.3,2.8,1.7,4.3
	c1.8,0.3,3,0.4,4.9,0.5c0.1,0,0.2,0,0.2,0c-0.1,0-0.2-0.1-0.3-0.1c0.8-0.7,1-1,1.4-1.8h-0.9c0.9-0.7,1.1-1,1.4-1.7
	c-0.7,0.4-2.8,1.7-3.6,0.4c0-0.2,2.3-0.4,2.5-0.9c-0.1-0.1,0-0.2-0.1-0.3c-1-0.3-1.8-0.2-2.6,0.2c-0.3-1.3,0.4-1.8,2.8-1.8
	c5-1.5,3.9,0.3,5.4,2.8c-0.3,0-0.7,0-1,0c0.4,0.7,0.5,1,1.2,1.6c-0.5-0.1-0.8-0.2-1.1-0.2c0.3,0.8,0.5,1,0.9,1.6c0,0-0.1,0-0.3,0.1
	c0.1,0,0.1,0,0.2,0.1c1.4-0.3,2.2-0.5,3.2-0.8c-0.7-1.5-0.8-3.4,1.8-4.1c1.8-0.4,3.3,0.4,3.9,1.6l6,11.8c-0.2,0.5-0.8,0.5-2.6,0
	c-0.6,0.3-1,0.4-2.4-0.2c-1.3,0.2-2.1,0-3.2-2.3c-0.2,1.2-0.9,1.4-2.1,0.5c-0.3,1.3-1.2,1.5-2.1,0.4c-0.2,1.2-1.1,1.4-2.1,0.6
	l0.3,2.3h16.8v3.5h0.1v8.3c-0.2,9.8-14.9,14-22.6,17c-8.4-8.6-15.7-21.7-24-50.9c-2.8,9.7-5.4,17.7-7.9,24.2l-2.1,0.2v-2.1h-1.3
	c0.8-1.8,0.6-2.5,0.9-4c0.2-0.9,1.1-0.8,1.2-0.2c0.7-0.9-0.3-2-1.4-1c-0.4-0.7-0.4-0.9-0.1-1.6c0.4-0.4,1.3-0.3,1.3,0.4
	c1-0.6-0.4-3.1-2.1-1.1c-0.4-0.5-0.5-0.8-0.5-1.2c0.6-0.7,1.1-0.5,1.2,0.1c1-0.7-0.6-2.3-1.8-1c-1.1-1.9-1.9-6.5,0.8-7.1
	c1.6-0.3,2.5,0.3,3.2,1.3c0.1,0.5,0.5,1.2-0.3,1.5c0.2,0.3,0.4,0.5,0.7,0.6c-1.2,0.8,0.6,2.7,0.6,3.7c0.4-0.6,0.6-0.9,0.4-1.4
	c0.2,0.2,0.2,0.4,0.3,0.7c0.5-0.7,0.1-1.2-0.1-1.6c0.3,0.2,0.3,0.4,0.5,0.6c0.3-1.3,0.1-1.5-0.3-2c0.4-0.1,0.5-0.4,0.7-0.6
	c-1.3-0.1-2-2.9-3.6-3.6c-4.8-1.4-6,3.1-4.7,7c0.5,1.7,1.7,4.3,2.2,5.9c0.3,1,0.3,2.4-0.6,4.6h-0.1h-1.5v2.1h-2.1
	c-3.3-2.8-4.2-5.7-6.2-7.8c0.6,0.4,1.6,1.1,2.7,1.2c-0.5-0.7-1-1-1-1.9c1,1.1,2.5,1.1,3.4,0.8c-1.1-0.9-1.8-1.4-1.9-3.4
	c1,0.8,1.3,1.2,1.9,1.9c1-1.8,0.4-2.8-0.5-4c0.8,0.6,0.6,0.3,1.5,0.5c-0.3-0.8-0.2-0.9-0.9-1.6c0.7,0.3,0.4,0,1.1,0
	c-0.3-0.5-0.1-0.9-1.1-1.5c0.7,0,0.7-0.3,1-0.6c-2.3-0.7-0.9-1.5-3.4-2.3c0.8-1.1-0.9-1.9-1.5-0.8c-0.4-0.2-0.4-0.3-0.9-0.4
	c0.2-1.6-1.9-1.4-1.6,0c-1.2,0.3-1.5,0.4-2.4,0.8c-0.1,0.3-0.1,0.5-0.1,0.9c-1,0.5-1.4,0.7-2.6,1.1c-0.5,0-0.6,0.4,0,0.4
	c0,0.3,0.2,1.3,0.3,1.8c0,0.3,0.2,0.3,0.3,0c0-0.1,0.9-0.8,1.2-0.8c0-0.3,0.2-0.3,0.2,0c0.3,0.1,0.5,0.4,0.5,1.4
	c-3.7-0.3-4.1-0.3-4.4-1c-0.2-0.8-0.7-0.6-0.3,0.2c0.2,0.5,0.3,0.8,4.6,1.1c-0.4,0.4-0.8,0.5-1.6,0.5c0-0.4-0.2-0.4-0.2,0
	c-0.1,0-0.2,0.2-0.2,0.5c-0.2,0.2-0.3,0.4-0.3,0.4c-0.9-0.1-1.4-0.5-2.8-0.4c-1.5-2.1-3.7-0.9-5.7-4.4l-0.1,0h0l0.6-0.3l0.7,1.4
	l0.8-0.4l-0.8-1.3c2.8-1.2,4.6-1.7,8-1.8c1.1-1.1,1.6-1.5,2.6-2.7c-4.6-0.3-7.3,1.2-11,3.6l-0.1,0l-0.8-1.5l-0.7,0.4l0.5,0.8
	c-0.4-0.5-1.1-0.9-1.9-0.5c-0.9,0-1.3,0.1-1.6,0.8c-1.1,0.1-1.1,2.1-0.3,2.4l0.1,0v0l-0.5,0.2l0.5,0.7l1-0.5c0,0.5,0.1,0.7,0.5,1
	c0.2-0.2,0.5-0.4,0.7-0.5c0.1,0.7,0.2,1.2,0.5,2c0.3-0.3,0.4-0.4,0.6-0.6c0,0.9,0.1,1.2,0.3,1.9c0.3-0.3,0.6-0.5,0.8-0.7
	c-0.1,0.9-0.1,1.5,0.4,2c0.2-0.3,0.2-0.6,0.3-0.9c0.4,0.4,0.9,0.9,1.7,1.3c0,0.2,0.3,0.4,0.4,0.6c-0.5,0.5-0.8,0.5-1.4,0.6
	c0.7,0.5,1.1,0.5,2,0.3c-0.4,0.4-0.5,0.8-1.1,1c0.7,0.2,1,0.2,1.6,0.2c-1.6,0-2.5,0.3-4.1,1.5c0.2-0.7,0.6-1.5-0.1-1.4
	c-0.3,0.2-0.6,0.1-0.9-0.2c-0.4,0-0.3,0.5-0.3,1c-0.1-0.8-0.3-1.5-0.8-1.3c-0.2,0.4-0.4,0.6-1.1,0.5c-0.2,0.2,0,0.4,0.2,0.6
	c0.1,0.1,0.2,0.2,0.3,0.3c0,0-0.2-0.1-0.3-0.3c-0.3-0.3-0.6-0.4-0.8,0c0.1,0.5,0,0.7-0.3,1c0.1,0.5,0.2,0.4,1.1,0.4
	c-0.8,0-1,0.1-1.2,0.5c0.4,0.4,0.5,0.8,0.5,1.2c0.6,0.4,2-0.3,2.5-0.9c0.1,0.3,0.1,0.6,0,0.9c1.1-0.3,2-0.8,2.2-1.2
	c0.1,0.3-0.1,0.6,0,1.1c0.6-0.2,1-0.3,1.5-0.8c-0.1,0.4-0.2,0.5-0.3,1c0.9-0.2,1.1-0.3,1.6-1c-0.1,0.5,0,0.5,0,0.9
	c1-0.5,1.1-0.4,1.7-1.2c-0.2,0.6-0.1,0.7-0.1,1.1c0.9-0.5,1.2-0.7,1.5-1.4c0.1,0.3,0.1,0.5,0.2,1c0.5-0.3,0.8-0.6,1.3-1.2
	c0.1,0.3-0.2,0.6-0.2,1c0.7-0.2,1.1-0.4,1.4-0.8c0.8,2.7,4.3,2.7,4.9,4.2v1.5h-4.4v-2.1h-4.5v2.1h-4.4v-2.1H127v2.1h-5L122.1,273.9z
	 M125.1,266.1v-21.3c0-3.3,2.6-6.4,6.3-5.6c3,0.6,4.4,2.1,3,5c1.9,1.1,3.2,1.6,5.9,2.1c0.4-0.8,1-1.7,1.6-2.4
	c-0.4,0.1-0.5,0.1-0.9,0.2c0.9-0.8,1.9-1.1,2.1-1.9c0.1-0.5-0.5-1.4-0.9-1.7c-0.4,0.1-0.8,0-1.2,0v1.9h-1.1V240
	c-0.3,0.2-0.5,0.4-0.7,0.8c-0.9-1.4-0.3-2.2,0.7-2.6c0-0.9,0-1.6,0-2.5c-0.5,0-1,0.1-1.7,0.2c0-0.5-0.1-1-0.1-1.4
	c0.8,0.1,1,0.1,1.8,0.1c0-0.5-0.2-1.2-0.3-1.7c0.6,0,1.1,0,1.7,0c-0.1,0.5-0.3,1.1-0.3,1.7c0.8,0,1.1,0,1.7-0.2c0,0.5,0,0.9,0,1.3
	c-0.5-0.1-1.3-0.1-1.7-0.1c0,0.6,0.1,1.7,0.1,2.3c0.2-0.1,0.4-0.1,0.6-0.1h0c0.7-1.4,3-1.7,4.5-1.4c2.1,0.5,1.8,2.8,3.7,3.9
	c-0.6,0.2-0.6,0.3-1.1,0.1c0.2,1,0.7,1.3,1,2.1c-0.5-0.1-0.5-0.1-0.9-0.2c0.5,0.7,0.9,1.5,1,2.1c-0.5-0.1-0.5-0.1-1-0.1
	c0.3,0.6,0.8,1.6,0.8,2.1c2.7-0.2,3.9-0.4,5.5-1.4c-1-2.8-1.2-4.4,2.5-5.6c2.8-0.5,6.6,0.2,6.6,6.1v20.1c0.1,1.6,0.3,2.4,1.2,3.3
	c-1.4-0.4-2.4-0.9-3.8-3.4c-0.8-0.1-1.6-0.6-2.8-2.8c-2.4-0.7-2.6-0.8-2.6-8.6c-0.3,0.7-0.5,0.7-1.3,1c-0.9-0.2-1.2-0.6-1.5-1.1
	c-0.2,0.6-0.4,0.8-1.2,0.9c-0.3-0.2-0.5-0.3-0.9-0.8c0.7,1.3,2.4,3.9,3.6,5.7c-0.8-0.2-1-0.3-1.8-0.5c1.4,2.4,1.6,3,3.4,5.8
	c0.1,0.3,0.2,0.2,0.5,0.2c1,0.1,1.3-0.5,1.9,0.1v0.1c0.6-0.2,1.3,0.1,1.1,1.1c-0.2-0.3-0.4-0.5-0.9-0.5v0.2
	c-0.9,0.3-0.7-0.3-1.8-0.1c0.7,0.9,1.5,0.6,1.7,1.5c0,0.1,0,0.2-0.1,0.2l0,0.2c0.4,0.4,0.3,1-0.1,1.5c-0.2-1.2-0.6-1-0.7-1.2l-0.1,0
	c0,0-0.2,0-0.4,0c-1.2-1-0.4-1.2-0.9-2c-0.2-0.1-0.2-0.1-0.4,0.1c-0.4,1.3,0.6,1.4-0.4,2.3c-0.1,0-0.2,0-0.3,0
	c0.2,0.4-0.6,0-0.7,1.2c-0.9-0.7-0.7-1.3-0.3-1.4l0,0c0-0.1-0.2,0-0.2-0.1c0.1-0.5,0.9-1.1,1.4-2c0-0.2,0-0.2-0.3-0.3
	c-1.1,0.4-0.5,0.8-1.9,1c-0.1-0.1-0.1-0.1-0.1-0.1c-0.2,0.4-0.7-0.1-0.8,0.8c-0.6-0.5-0.3-1.5,0.4-1.5c0.1,0-0.1-0.1,0-0.3
	c0.4-0.4,0.9-0.1,1.9-0.6c0.2-0.1,0.1-0.2,0.1-0.2c-1.1-1.5-2.8-3.6-3.7-5.1c0,0.8-0.3,1.6-0.6,2c-0.8-1.7-1.2-2.3-2.4-4.1
	c-0.2,0.3-0.1,0.2-0.5,0.4c-0.2,0-0.5-0.3-0.6-0.3c0.9,4.5,1.3,5.5,3.6,9.2c-0.5,0.5-2.3,1-3,1.4c0.3,0.5,0.6,0.9,0.9,1.4
	c-1.4,0.8-2.1,1.2-4.1,1.8c-1.9-0.6-2.6-0.9-4.5-1.8c0.4-0.6,0.7-1.1,0.9-1.7c-1.4-0.7-2.1-1-3.6-1.7c3.4-4.5,3.8-5,5-8.7
	c-0.2,0.1-0.3,0.1-0.6,0.3c-0.1-0.2-0.3-0.6-0.5-0.7c-1,1.8-1.2,1.8-2.5,3.3c-0.3-0.4-0.5-0.6-0.5-1.1c-0.3,0.4-1.9,1.8-4.8,4.7
	c0,0,0,0.2,0.1,0.2c0.9,0.5,1.5,0.2,1.9,0.5c0.1,0.2,0.1,0.2,0,0.3h-0.1c0.5,0.3,1,1.1,0.5,1.5c0-0.9-0.6-0.5-0.7-0.8v0
	c0,0.1,0,0.1-0.2,0.1c-0.5,0-2.1-1.2-2.1-0.6c0.4,0.8,1.3,1.3,1.4,1.8c-0.1,0.1-0.5,0-0.3,0.2c0.3,0.2,0.7,0.7-0.2,1.4
	c0-1-0.6-0.8-0.7-1c0-0.1,0,0-0.1,0c-0.8-0.1-0.3-1.1-0.6-2.3c-0.1-0.2-0.1-0.2-0.4-0.1c-0.6,0.7,0.3,1-1,1.9c-0.2,0.1-0.3,0-0.4,0
	c-0.1,0.4-0.5,0-0.7,1.2c-0.5-0.5-0.6-1.1-0.1-1.6c0.1-0.1-0.1-0.1-0.1-0.3c0.2-0.8,1-0.6,1.6-1.5c-1-0.2-0.8,0.3-1.7-0.1
	c-0.6-0.1-0.8,0.1-1,0.5c-0.3-1,0.5-1.3,1.1-1.1h0h0c0.6-0.6,0.9,0,1.9-0.1c0.3,0,0.4,0,0.5-0.2c0.8-0.8,4-4.6,4.8-5.5
	c-0.6,0.3-1,0.2-1.7,0c0.7-1.1,1.9-3.4,2.8-5.2c0,0-0.4,0.7-0.9,0.9c-0.6-0.2-0.8-0.4-1.1-1c-0.4,0.7-0.6,0.6-1.3,1.1
	c-0.7-0.2-1-0.5-1.4-1c-0.3,3.1-0.6,5.9-2.7,7.1c-0.5,1.8-1.1,2.6-3.2,3.5c-0.4,1.5-1.5,3.1-3.5,3.8
	C124.7,267.6,124.9,267,125.1,266.1 M129.6,233.8l0.6-0.4v-0.6l0.6-0.1l0.2-0.6l0.8,0.3l0.5-0.5l0.5,0.5l0.7-0.3l0.2,0.6l0.6,0.1
	v0.6l0.8,0.2l-0.2,0.7l0.5,0.4l-0.5,0.5l0.2,0.5l-0.5,0.3l0.2,0.6l-0.7,0l-0.2,0.7l-0.7-0.4l-0.7,0.5l-0.5-0.5l-0.7,0.3l-0.2-0.6
	l-0.7,0l0.1-0.6l-0.7-0.1l0.1-0.7l-0.6-0.5l0.6-0.4L129.6,233.8z M151.5,233.2c0-1.4,5.7-2.1,5.8,1.7c-0.2,3.6-5.8,3.1-5.8,1.4
	c1.8,0.9,3-0.3,3-1.4C154.4,233.9,153,232.7,151.5,233.2 M185.6,325.2c-1.4,0.2-4.1,0.4-5.5-1.1c-1.9,1.7-4.3,2.3-6.3,1.8h-0.1
	c-1.3,1.2-3,0.6-1.3-0.5c-1.4-0.3-3.3-0.9-3.3-2.4c0.2-0.5,0.8-0.5,1.3,0l0.1,0c0.7-0.5,0.5-0.2,1-1c-2.6-2.7,4.1-5.2,2.5-6.3
	c-0.8-0.6-1.4,0.2-1.9,0.8c-0.7-1.3,0.3-2.5,2.3-2.5c-0.7-1.5-1.9-4.1-3.2-5.7c-1.1-1.3-2.1-4-1.5-7.4c1.3-5.6,0.2-4.6-0.2-6.3
	c-0.5-2,0.1-2.8,1.8-3.7c-1.2,1.9,3.2,3.1,1.5,6c5,0.8,1.7,5,3.1,7.2c-3.7-1.3-1.5-4.1-3.7-4.1c-1.3-0.1,3.7,7,3.7,7.5
	c0.2-0.3,0.5-0.4,0.9-0.4c0.4-0.4,0.6-0.5,1.1-0.5c-0.2,1.7-0.2,1.9-0.1,3.4c1.4,1.8,2.7,3.5,3.2,4.7c0.9,1.8,1,5-0.3,7.8
	c1.4-0.8,2.2-0.9,3.2-1.6c0.2,0.5,0.3,1,0.2,1.4c0.6,0.1,0.9,0,1.9,0.8c-0.8,0.2-1.6,0.4-2,1C184.8,324.1,185.5,324.6,185.6,325.2
	 M164.2,325.4c1.5,1,0.1,1.5-1.2,0.5h0l-0.2-0.1c-2.1,0.6-4.6,0-6.6-1.7c-1.8,1.8-4.2,1.5-6,1.7c0.2-0.7,0.8-1.3,1.6-1.4
	c-0.5-0.8-1-1-1.9-1.1c0.7-0.5,1.3-0.5,2.1-0.8c-0.1-0.5-0.2-1,0-1.5c1.1,0.7,1.9,0.8,3.4,1.6c-1.4-2.8-1.3-6-0.4-7.8
	c0.7-1.4,2.3-3.3,4-5.5l-0.6,0.7c0.2-1.5,0.2-1.7,0-3.4c0.5,0,0.8,0.1,1.1,0.5c0.5,0,0.7,0.1,1,0.4c3.2-3.9,6.1-7.6,3.9-7.5
	c-2.3,0,0,2.8-3.9,4.1c1.5-2.2-2-6.3,3.3-7.2c-1.8-3,2.7-4.1,1.5-6c1.8,0.9,2.3,1.7,1.9,3.7c-0.4,1.6-1.5,0.6-0.2,6.3
	c0.6,3.4-0.4,6-1.5,7.4c-1.3,1.5-2.6,4.1-3.3,5.7c2.1,0,3.2,1.2,2.4,2.5c-0.5-0.6-1.1-1.4-2-0.8c-1.6,1.1,5.3,3.6,2.6,6.3
	c0.5,0.8,0.2,0.5,1,1l0,0c0.5-0.5,1.1-0.5,1.4,0C167.8,324.5,165.7,325.1,164.2,325.4 M145,315.6L145,315.6v-7.1l1.5-2l2.8-1.2
	l2.8,1.1l1.6,2.1l0.6,2.4c-1.2,2.1-2.2,4-3.4,5.8c-0.6-0.3-1.4-0.6-1.7-1C148.2,317.1,146.2,316.8,145,315.6 M136.1,315.8
	L136.1,315.8c-1.7,0.9-3.5,0.7-4.6-0.8c-1.4,1.6-3.1,1.6-4.5,0.7h0v-7.2l1.9-2.4l2.7-0.7l2.9,1l1.5,2.3V315.8z M130,322.2
	c12.7,4.1,25.3,8.4,37.9,12.7c14.1-4.3,46.9-12.6,48.9-24.2v0c0.1-0.7,0.2-2.2,0.2-2.9l-0.1-79.7l-97.4,0V311c0,0.2,0,0.4,0,0.5
	C120.1,317,125.1,320,130,322.2"/>
<polygon class="st1" points="186,305.9 187,305.9 187,307.4 189.1,307.4 189.1,304.7 188.1,304.7 188.1,303.4 189.1,303.4 
	189.1,301.3 188.1,301.3 188.1,302.4 187,302.4 187,301.3 186,301.3 186,302.4 184.9,302.4 184.9,301.3 183.8,301.3 183.8,303.4 
	184.9,303.4 184.9,304.7 183.8,304.7 183.8,307.4 186,307.4 "/>
<path class="st1" d="M219.4,310.7c0.5,12.3-18.4,15.4-51.5,27.8c-31.5-10.8-50.3-13.4-50.8-25.2v-87.4h102.4V310.7z M144.6,175.3
	v-2.2c4.1-0.1,8.7,1.5,11.1,2l1.3,3.2C153.7,177,148.4,175.3,144.6,175.3 M163.2,165.6c0,0,0,0.1,0,0.1c0.4,1.8-0.7,3.7-2.6,4.1
	c-1.8,0.5-3.7-0.7-4.1-2.5c0-0.1,0-0.1,0-0.2L163.2,165.6z M207,340.1c0.1,0.1,0.1,0.2,0.1,0.2L207,340.1L207,340.1z M207.2,340.1
	c0.1,0.2,0.1,0.4,0.2,0.5C207.2,340.5,207.2,340.3,207.2,340.1L207.2,340.1 M262.1,264.7c0.5,0,3,1.5,3.4,1.5
	c-3-9.2-2.3-22.2-2.1-36.6c0.9,0.4,2.8,1.9,3.8,2.3c-0.8-8.2-0.6-10-0.6-14.7c0-28.7-14.9-36.3-26.6-39.5
	c-20.9-4.8-35.4,11.7-30.4,29.2c-1.2,5.5-4.2,9.6-9.4,12c-4.2,1.4-10.1,1.8-12.6-3c1.1,0.7,1.9,1.1,3.3,1.1c-1.3-1.3-2-3.2-2.6-5.5
	c-1-3.7-1.6-8.3-4-12.3c2.3,2,3.2,4.1,4,6c1.2-5.4-0.5-12-2.9-14.9c2,1,2.1,0.8,3.5,2.3c0.4-3-0.1-4.3-1-6.2
	c-0.1-4.3-0.5-5.7-2.5-8.2c2.1,0.9,3.5,0.8,5.4-0.3c-2.8-0.9-4.6-2.6-6.6-5.6c-2.5-3.8-2.9-10.5-11.4-10.4
	c-4.2,0.1-7.8-0.6-14.8,0.6c-2,0.3-6.8,1.9-11.1,1.7l0.4,2.3l-2.3,0.5c-0.2,0.1-0.4,0.1-0.6,0.2v-2.3h0v-0.4l0-0.8v-3.8
	c3.1,0,5.8,0.3,8.7,0.7l-0.1-5.9c-3.1,0.5-6,0.7-9.1,0.9c0.4-2.9,0.7-5.5,1.2-8.4c-2,0.2-4,0.2-6,0c0.5,2.8,0.8,5.4,1.1,8.3
	c-2.9-0.2-5.7-0.4-8.6-0.7l0.2,5.7c1.2-0.2,6.6-0.3,8.5-0.4v8c-3.1,1-5.8,3.2-3.3,9.1c0.9-2,1.5-3.3,3.3-3.9
	c0,9.3,0.7,19.6-1.6,28.5c3.3-1.1,4.4-1.2,7.7-0.1c-2.2-7.8-2.1-16.3-1.9-24.3c0.3,0,0.7,0,1,0.1c4.8,0.6,9.7,2.5,11.1,7.9
	c1.3,5-2.7,7.8-4.8,11.8c-4.1,8.2-2.6,15-6.4,19.1c1.3,0.1,2.6-0.1,2.6-0.1c-3,4.1-8.8,4.1-13.2,2.8c-3.5-1.3-7.1-5.6-8.7-10.5
	c6.5-21.2-15.4-34.6-31.2-30c-8.4,2.5-24.8,7.8-25.5,40c-0.5,4.7,0.3,7.5-0.9,12.3c1.5-0.5,2.1-0.7,3.4-1.4c0,13.3,0,31.2-2.8,37.1
	c1.5-0.4,2.6-1.1,3.4-1.8c1.2,55.1,1.8,95.5-2.1,105.1c5.9-1.9,8.6-2.8,12-6.9c1.7-0.3,3.2-0.5,4.7-0.9v-67.6c-2.6-10-5.1-20-7.5-30
	c-0.9-3.9-1.1-6.5,0-10.4l1.1-4l3.2,2.7c1.3,1.1,2.3,2.2,3.1,3.2v-41.9c0-0.8,0.7-1.5,1.5-1.5c0.8,0,1.5,0.7,1.5,1.5v47.9
	c6.8,19.6,12,39.8,17.2,59.9V205.8c0-0.9,0.7-1.5,1.5-1.5c0.8,0,1.5,0.6,1.5,1.5v127.7c0.3,1.3,0.7,2.5,1,3.8
	c2.9-3.9,4.7-8.1,5.8-14.3c1.9,2.6,5.1,4.8,9.7,6.8c-3.7,6.4-4.3,8.3-10.3,11.5c4.3,1.9,8.7,2.2,12.6-0.2c-0.1,0.3-0.1,0.5-0.2,0.7
	c-1.2,2.2-2.1,4.1-3.1,6c-1.3,2.3-2.4,3.2-4,5.1c-3.3,1.1-4.8-0.6-8.4,0.2c-0.1,0.1-0.2,0.1-0.2,0.1c-0.3-0.6-0.5-1.2-0.3-1.3
	c0.5-0.1,0.8-0.4,1-0.8c0.4,0,1.2-0.5,1.4-0.8c0.7,0.1,1.1-0.3,1.3-0.7l5.1-1.5c0.6,0.3,1.3,0.5,1.5,0.1c1.7-0.7,2.1-1.7,2.3-2.4
	c-0.5-0.5-1.7-1.3-3.4-0.6c-0.5-0.4-1,0.5-1.1,0.9l-5.1,1.6c-0.6-0.3-1.2-0.4-1.7,0c-0.5-0.3-1.3-0.2-1.6,0.3
	c-0.2-0.1-0.9-0.4-1.3-0.3c-7.7-27.3-14.6-57.8-24-84.7c-1.2-3.4-2.5-5.4-5.2-7.8c-1,3.5-0.8,5.6,0,9c6.4,27.1,15.1,58.2,22.2,85.4
	c0.1,0-1,0.3-1.3,0.8c-0.4-0.2-1.2,0.2-1.5,0.6c-0.5,0-1.1,0.3-1.2,0.8l-4.9,1.5c-0.7-0.3-1.1-0.4-1.5,0.1c-1.3,0.1-2.3,1.5-2.5,2.2
	c0.5,0.5,1.9,1.2,3.4,0.6c0.5,0.1,1.2-0.3,1.5-0.9l4.8-1.4c0.4,0.5,1.2,0.3,1.6,0c0.4,0.3,1.4,0.1,1.6-0.2c0.5,0.4,1,0.4,1.5,0.3
	c0.2-0.1,0.3-0.1,0.5-0.1c0.1,0.2,0.3,1.1,0.5,1.9c-3.3,1.4-3.6,2.9-2.9,4.5c0,0.2,0.1,0.5,0.2,0.8c-1.7,0.5-3.1,2.6-2.2,4.3
	c0,0.8,0.4,1.4,1.1,2l0.1,0h0.1c-1.2,1.4-2,4,1.6,4.5c-0.5,3.1,1.3,2.9,2.7,3.4c0.8,0.7,1.4,0.9,2.6,1.3c1.9,0.1,2.9,0.5,4.6,1.4
	c1.4,0.4,2.6,0.3,4.1-0.4c0.8-0.5,1.1-0.9,1.4-1.6c2.1-0.9,2.5-1.4,2.9-3.7c2.1-2.6,3.6-9.4,4-10.7c1.9-5.9,5.1-10.9,9-16
	c-0.7,4.2,0.2,9.2,3.5,11.7c0.5-9.1,4.2-13.8,8.3-20c1.2,0.4,3.7-0.2,3.6,1.1c-2.4,22.8-18.4,30.4-25.9,37.1
	c2.8,2.5,6.4,4.9,9.5,7.7c-0.9,1.4-1.7,2.1-2.8,3.5c2.1,1.3,10.8,6.7,13.3,8.2c-0.9,1.7-1.9,2.9-3.2,4.8c9.7,6.2,14.6,8.6,24.5,14.3
	c0.1-0.1,16.1-7.7,26.3-13.6c-0.9-1.3-1.9-2.8-3-4.4c5.5-3.2,10.1-6.3,14.3-9.1c-1.1-1.3-1.8-2-3-3.5c5.3-3.8,5.7-4.2,9.8-7.3
	c-16.8-15.7-22.6-20.7-29-38.7c1.9-0.6,3.7-1.3,5.4-1.9c5.1,7.1,7.6,10,9.7,19.8c3.5-3.4,2.7-6.8,2.9-11.5l0.4,0.4c0,0-0.1,0-0.1,0
	c0-0.1-0.1-0.1-0.2-0.2c0.1,0,0.1,0,0.1,0.1c-0.1,0-0.1-0.1-0.2-0.1c3.8,6.4,6.1,9.9,9.1,15c0.4,2.9,0.4,4.3,1.1,5.9h0.1
	c0.5,1.2,1.2,2.3,2.6,3.9c0,2,1.7,3.9,3.2,4.6c0.1,0.6,0.2,0.8,0.5,1.3c1.1,1.2,4.2,1.3,5.9,0.9c1.3-1.1,2.1-1,3.3-1.3
	c1.3-0.2,1.3-0.3,2.7-0.6c1.2-0.6,2.1-0.9,2.8-1.2c0.9-0.8,0.8-2.3,0-3c1.8-1.3,4.3-2.7,1.9-4.4c-0.1,0-0.3-0.2-0.4-0.2
	c1.1-1.9,0.8-4-0.5-5.5c0-2.9-1.4-4.4-3.6-6.4h-0.1c4.1-14,8.4-31.9,12.6-48c1.8,0.1,2.2-0.9,2.4-1.9c1.4-0.4,1.6-1.4,0.7-2.5
	c1.7-0.7,1.8-1.8,1.4-3.2c5.3-6,9-10,9.7-12.1c0.5-2.2-1.2-6.6-2.9-12.8c0.2-0.7,0.6-2.3-1.2-2.7c-0.2-0.1-0.3-0.3-0.4-0.4
	c0.5-0.3,0.9-0.9,0.9-1.5c0-1-0.8-1.7-1.8-1.7c-1,0-1.8,0.8-1.8,1.7c0,0.3,0.1,0.5,0.2,0.8c-0.4,0.1-0.7,0.3-1.1,0.5
	c-1.6-0.4-2.5,1-2.9,1.9c-4.1,4.4-8.3,7.6-9.1,9.7c-0.2,1.9-0.1,6.6,1.2,14.1c-1.7,0.8-1.9,2.2-0.9,3.5c-1.5,0.5-1.6,1.5-0.7,2.5
	c-0.3,1.3,0,2,0.8,2.6c-3.8,15.5-7.8,29.4-13.8,47.5c-1.2-0.3-6.1,0.5-9.3-0.7c-2.9-4.1-4.6-6.9-6.3-10.4c4.4,1.2,6.1,0.9,11.4,0
	c-5.9-3.4-7.9-4.8-11.8-10.8c5-2.3,8.2-4.3,10.5-7.1c1.3,6.9,3.2,10.7,7.5,13.8c0.4-1.2,0.7-2.4,1.1-3.6V206.6
	c0-0.9,0.7-1.5,1.5-1.5c0.8,0,1.5,0.7,1.5,1.5v115.5c1.7-5.9,3.2-11.8,4.7-17.8c-0.5-0.8-0.7-1.7-0.7-2.7c-0.7-1.4-0.6-2.9,0.3-4.1
	c-0.2-1.4,0.2-2.7,1.2-3.7c-0.4-2.6-0.8-5.2-0.9-7.8c-0.1-1.8-0.2-3.8,0-5.5v-0.3l0.2-0.3c0.7-1.8,2.6-3.5,4-4.9
	c1.8-1.7,3.6-3.4,5.4-5.3c0.7-1.4,1.8-2.5,3.2-3v-51.5c0-0.9,0.7-1.5,1.5-1.5c0.8,0,1.5,0.6,1.5,1.5v48.7c0.5-0.2,1.1-0.3,1.7-0.3
	c2.4,0,4.5,1.9,4.5,4.3c0,0.3,0,0.6-0.1,0.9c0.5,0.5,0.7,1.1,0.8,1.8c0.1,0.6,0.1,1.2,0,1.8c0.7,2.5,1.4,4.9,2.1,7.3
	c0.5,1.9,1.1,4.2,0.6,6.1l0,0.1v0.1c-0.6,1.8-2.4,4-3.6,5.4c-1.8,2.2-3.8,4.4-5.7,6.6c0.1,0.7-0.1,1.4-0.3,2v58.9
	c2.1,1.3,4.2,2.1,6,2.1c3.7,3.1,5.8,4,10.8,5.1C260,359.2,262.4,307.7,262.1,264.7"/>
<path class="st1" d="M95.6,350.5l3.3-1c0.5-0.5,1.1-0.8,1.7-1c0.3-0.2,0.6-0.4,0.9-0.5c-3.6-14-7.4-28-11.2-42v46.6
	c0.7-0.8,1.7-1.4,2.6-1.7C93.8,350.3,94.7,350.3,95.6,350.5"/>
<path class="st1" d="M244.2,307.3c-1.2,4.6-2.4,9.1-3.6,13.7c-2,8.1-4.1,16.4-6.4,24.5c2.7,2.9,5.6,5.5,7.7,6c1.1,2,2.5,3.8,4.1,5.3
	v-51.1C245.7,306.5,245,307.1,244.2,307.3"/>
<polygon class="st1" points="201.5,305.9 202.5,305.9 202.5,307.4 204.6,307.4 204.6,304.7 203.6,304.7 203.6,303.4 204.6,303.4 
	204.6,301.3 203.6,301.3 203.6,302.4 202.5,302.4 202.5,301.3 201.5,301.3 201.5,302.4 200.4,302.4 200.4,301.3 199.3,301.3 
	199.3,303.4 200.4,303.4 200.4,304.7 199.3,304.7 199.3,307.4 201.5,307.4 "/>
<polygon class="st1" points="196.5,308.8 195.4,308.8 195.4,311 196.5,311 196.5,312.3 195.4,312.3 195.4,315 197.6,315 
	197.6,313.4 198.7,313.4 198.7,315 200.7,315 200.7,312.3 199.7,312.3 199.7,311 200.7,311 200.7,308.8 199.7,308.8 199.7,310 
	198.7,310 198.7,308.8 197.6,308.8 197.6,310 196.5,310 "/>
<polygon class="st1" points="188.8,308.8 187.7,308.8 187.7,311 188.8,311 188.8,312.3 187.7,312.3 187.7,315 189.9,315 
	189.9,313.4 190.9,313.4 190.9,315 193,315 193,312.3 192,312.3 192,311 193,311 193,308.8 192,308.8 192,310 190.9,310 
	190.9,308.8 189.9,308.8 189.9,310 188.8,310 "/>
<polygon class="st1" points="193.7,305.9 194.8,305.9 194.8,307.4 196.8,307.4 196.8,304.7 195.9,304.7 195.9,303.4 196.8,303.4 
	196.8,301.3 195.9,301.3 195.9,302.4 194.8,302.4 194.8,301.3 193.7,301.3 193.7,302.4 192.7,302.4 192.7,301.3 191.6,301.3 
	191.6,303.4 192.7,303.4 192.7,304.7 191.6,304.7 191.6,307.4 193.7,307.4 "/>
<polygon class="st1" points="204.3,308.8 203.2,308.8 203.2,311 204.3,311 204.3,312.3 203.2,312.3 203.2,315 205.4,315 
	205.4,313.4 206.4,313.4 206.4,315 208.5,315 208.5,312.3 207.5,312.3 207.5,311 208.5,311 208.5,308.8 207.5,308.8 207.5,310 
	206.4,310 206.4,308.8 205.4,308.8 205.4,310 204.3,310 "/>
<polygon class="st1" points="209.3,305.9 210.3,305.9 210.3,307.4 212.3,307.4 212.3,304.7 211.4,304.7 211.4,303.4 212.3,303.4 
	212.3,301.3 211.4,301.3 211.4,302.4 210.3,302.4 210.3,301.3 209.3,301.3 209.3,302.4 208.2,302.4 208.2,301.3 207.1,301.3 
	207.1,303.4 208.2,303.4 208.2,304.7 207.1,304.7 207.1,307.4 209.3,307.4 "/>
<path class="st1" d="M179,253.2c1.3,0,1.9-0.2,4.1-0.9c-0.5,0.7-0.3,1.5,0.2,2c0,0.8,0.1,1.4,0.7,2.1c0,0.6,0,1,0.5,1.4
	c0.3,2.3,0.8,3.4,2.4,6.2c-1.1,0.4-2.1,1.2-2.1,2.6c0,2,2.2,2.8,3.7,2.8c0.8,1.3,1.5,1.6,2.5,1.6c1.1,0,1.9-0.4,2.6-1.6
	c1.5,0,3.7-0.8,3.7-2.8c0-1.4-1-2.2-2.1-2.6c1.4-2.8,2.1-4,2.3-6.2c0.5-0.4,0.6-0.7,0.5-1.4c0.5-0.7,0.7-1.2,0.7-2.1
	c0.4-0.5,0.6-1.3,0.1-2c2.1,0.7,2.8,0.9,4.2,0.9c4.2,0,5.1-1.8,6.5-3.8c-3.8,0.8-4.8-2.4-8-2.4c1.3,0,2.6-2.5,2.6-6
	c0-4.1-3.6-9-7.8-9c3.1,1.4,4.2,4.5,4.1,7.2c-0.2,3.5-1.6,4.2-2.9,5.1c-1.9-1.1-2.9-0.7-4.5,1.1c-0.3-1.1-1.1-1.4-2-1.4
	c-0.8,0-1.6,0.3-1.9,1.4c-1.5-1.8-2.5-2.2-4.5-1.1c-1.3-0.9-2.7-1.6-2.8-5.1c-0.2-2.7,1-5.8,4.1-7.2c-4.2,0-7.8,5-7.8,9
	c0,3.5,1.3,5.9,2.6,6c-3.2,0-4.2,3.2-7.9,2.4C173.8,251.4,174.9,253.2,179,253.2"/>
<polygon class="st1" points="188.2,242 190.9,240.5 193.9,242 193.5,238.9 195.7,236.6 192.6,236.1 190.9,232.9 189.5,236.1 
	186.1,236.6 188.7,238.8 "/>
<path class="st1" d="M175.2,265.1c-2.9,0.9-2.5,1-2.6,1.6c0.1,0.5,0.7,0.6,1.3,1c0.5,0.5,0.6,1,1.3,1c0.9-0.2,1.4-0.2,1.4-2.7
	c0,2.7,0.5,2.4,1.2,2.7c0.8,0,0.7-0.4,1.5-1c0.8-0.4,1-0.4,1.2-1c-0.1-0.5,0.4-1-2.5-1.8c2.7,0.8,2.9,0.4,3.3-0.1
	c0.4-0.6-0.5-1-0.7-1.6c-0.2-0.6-0.1-1-0.5-1.4c-0.6,0-0.9-0.5-2.7,1.5c1.9-2.2,1.4-2.2,1-2.8c-0.7-0.4-1.3,0-1.9-0.1
	c-1,0-1,0-1.7,0.3c-0.2,0.4-0.9,0.6,1,2.6c-2-2.1-1.9-1.4-2.6-1.4c-0.6,0.2-0.4,0.8-0.6,1.4c-0.2,0.6-0.7,0.8-0.5,1.4
	C172.5,265.5,172.4,265.9,175.2,265.1"/>
<path class="st1" d="M209.7,262.7c-0.1-3-8.2-3.2-8.2,2.7c0.1,5.6,8.2,5.2,8.3,1.9c-2.2,1.4-4.7-0.2-4.7-1.9
	C205.2,263.6,207.6,261.9,209.7,262.7"/>
<path class="st2" d="M177.3,151.3c-0.2,1-1.7,4.9-1.7,4.9l0,0c0.5,0.2,0.9,0.8,0.9,1.6c0,0.9-0.6,1.7-1.3,1.7
	c-0.7,0-1.3-0.7-1.3-1.7c0-0.1,0-0.1,0-0.2h0l-0.7-0.2v0.1c0,0.9-0.8,1.6-1.8,1.6c-1,0-1.8-0.7-1.8-1.6c0-0.9,0.8-1.6,1.8-1.6
	c0-0.3-0.3-4.6-1.8-5.5c0,0-0.6-0.7,0.2-2.8c0,0,3.2-0.7,4.5-0.2C175.6,148.1,177.6,150.1,177.3,151.3 M166.7,150.5
	c-1.6,0.9-1.8,5.2-1.8,5.5c1,0,1.7,0.7,1.7,1.6c0,0.9-0.8,1.6-1.8,1.6c-1,0-1.8-0.7-1.8-1.6v-0.1l-0.7,0.2h0v0.2
	c0,0.9-0.6,1.7-1.3,1.7c-0.7,0-1.3-0.7-1.3-1.7c0-0.7,0.4-1.4,0.9-1.6l0,0c0,0-1.5-3.9-1.7-4.9c-0.3-1.2,1.7-3.3,3.1-3.8
	c1.4-0.5,4.6,0.2,4.6,0.2C167.4,149.9,166.7,150.5,166.7,150.5 M182.8,149.9c0.1-4-1.3-5.6-6.6-5.4c-2.7-1.8-6.1-0.7-6.3-0.6
	c-0.3,0.1-0.4-0.1-0.3-0.3c0,0,0.2-0.5,0.2-0.7c0-0.3-0.1-0.6-0.3-0.9v-2.8h2.2v-2.5h-2.2v-2.1h-2.5v2.1h-2.2v2.5h2.2v2.7
	c-0.2,0.3-0.4,0.6-0.4,1c0,0.3,0.2,0.7,0.2,0.7c0.1,0.2-0.1,0.4-0.3,0.3c-0.3-0.1-3.6-1.2-6.3,0.6c-5.3-0.1-6.7,1.5-6.6,5.5
	l-1.2-0.4v2.5l1.2,0.4c0.9,0.9,2.3,2.6,2.8,4.6c0.2,0.8-0.7,2.7,1.2,3.4l0.7,2.9c-1,0.1-0.7,1.3,0.1,1.1c1.2-0.2,2.5-0.3,3.7-0.4
	c0.5,0,0.9-0.1,1.4-0.1c1.2,0,2.4-0.1,3.5-0.1h2.7c1.2,0,2.3,0,3.5,0.1c0.5,0,0.9,0.1,1.4,0.1c1.2,0.1,2.6,0.2,3.7,0.4
	c0.8,0.1,1-1,0.1-1.1l0.6-2.9c2-0.7,1-2.7,1.2-3.4c0.5-2,1.9-3.7,2.8-4.6l1-0.3v-2.5L182.8,149.9z"/>
</svg>
